<?xml version="1.0" encoding="UTF-8"?>
<svg width="205px" height="34px" viewBox="0 0 205 34" version="1.1" xmlns="http://www.w3.org/2000/svg" xmlns:xlink="http://www.w3.org/1999/xlink">
    <title>Combined Shape</title>
    <g id="Page-1" stroke="none" stroke-width="1" fill="none" fill-rule="evenodd">
        <path d="M-1.42108547e-14,7.56178568 C16.8965837,4.94933769 34.0176085,2.90741366 51.0725691,1.6623218 C78.8673503,-0.33213533 106.776036,-0.30877417 134.616198,0.56801335 C147.451978,1.06811645 160.317361,2.03047459 173.090545,3.38550242 C183.665476,4.5128673 194.456307,5.93158715 204.951363,7.56178568 C194.392527,6.43979227 183.586428,5.34373901 172.989752,4.47911901 C141.010338,1.76765591 108.876135,1.63438909 76.8072729,2.1483663 C51.1462815,2.63106087 25.5105125,4.78546955 -1.42108547e-14,7.56178568 L-1.42108547e-14,7.56178568 Z M23.9383796,33.2743888 C21.2524338,33.2743888 19.4901097,33.4309812 17.1487352,32.4974506 C15.1154333,31.720465 14.7715,30.5430015 14.7715,29.1208803 L14.7715,19.9264817 C14.7715,18.6386948 14.9632286,17.750794 16.4219278,16.8641913 C17.7233418,16.0866126 19.8340365,15.9307345 21.9829738,15.9307345 L34.1394882,15.9307345 L34.1772158,19.5937627 L23.2089967,19.5937627 C22.7085561,19.5937627 22.3262573,19.728097 21.9829738,19.9486766 C21.6365996,20.1717232 21.5579897,20.4169633 21.5579897,20.7281371 L21.5579897,28.4997662 C21.5579897,28.8565619 21.7510061,29.1005686 22.2131399,29.3198515 C22.7858874,29.6101298 23.4403865,29.4998064 24.2049201,29.4998064 L34.3312168,29.4998064 L34.3312168,33.2743902 L23.9383783,33.2743902 L23.9383796,33.2743888 Z M59.4533327,33.2743902 L57.6495471,29.51882 L48.6775521,29.51882 L46.6801056,33.2743902 L39.8552451,33.2743902 L48.0632856,17.9073878 C48.7895125,16.5277086 50.5914311,15.5302 53.086872,15.5302 C55.4653296,15.5302 57.3069082,16.3755942 57.9959866,17.6842779 L66.3957557,33.2743902 L59.453334,33.2743902 L59.4533327,33.2743902 Z M53.0868707,20.1495283 L50.439297,25.7024439 L55.773397,25.7024439 L53.086872,20.1495283 L53.0868707,20.1495283 Z M80.7402215,19.5728567 C80.2052081,19.5728567 79.8599936,19.7280957 79.5148419,19.9486753 C79.1684036,20.1717219 79.0539972,20.416962 79.0539972,20.7281358 L79.0539972,22.5254826 L91.6719354,22.5254826 L91.6719354,26.3006502 L78.9753859,26.3006502 L78.9753859,33.2743888 L72.3800457,33.2743888 L72.3800457,19.9264817 C72.3800457,18.6386948 72.6101464,17.6411862 74.0669146,16.7514036 C75.3331766,15.9743995 77.3287561,15.9307345 79.5148419,15.9307345 L91.7109508,15.9091893 L91.7109508,19.5728567 L80.7402215,19.5728567 Z M97.4447158,33.2907655 C96.7142843,32.8541053 96.1419147,32.2520734 95.7273518,31.4847988 C95.3125341,30.7175229 95.1054436,29.8412441 95.1054436,28.8555749 C95.1054436,27.8201009 95.3189168,26.9125487 95.7459287,26.1326612 C96.1729392,25.3531598 96.7545653,24.7449512 97.4911258,24.308034 C98.2273674,23.871503 99.0660043,23.6531084 100.006782,23.6531084 C100.984394,23.6531084 101.838416,23.8747198 102.568912,24.3174288 C103.299024,24.7603948 103.868457,25.3718215 104.277019,26.1514508 C104.685326,26.9312091 104.889607,27.8262776 104.889607,28.8367853 C104.889607,29.8350674 104.682262,30.7175229 104.267572,31.4847988 C103.852882,32.2520747 103.280385,32.8541053 102.550272,33.2907655 C101.819841,33.7275535 100.965818,33.9456912 99.9882062,33.9456912 C99.022787,33.9456912 98.1748296,33.7275548 97.4447171,33.2907655 L97.4447158,33.2907655 Z M101.343481,31.8778309 C101.702313,31.6096316 101.974708,31.2167286 102.160414,30.6988625 C102.346054,30.1812547 102.438874,29.5479493 102.438874,28.799463 C102.438874,28.0386221 102.342861,27.3959233 102.151093,26.8718805 C101.959069,26.3478377 101.683801,25.9487567 101.324904,25.6742516 C100.965817,25.3998755 100.526612,25.2624298 100.006782,25.2624298 C99.499144,25.2624298 99.0599393,25.3998755 98.6885952,25.6742516 C98.3173151,25.9487567 98.0355982,26.3478377 97.8438932,26.8718805 C97.651805,27.3959233 97.5561127,28.0386234 97.5561127,28.799463 C97.5561127,29.5479493 97.651805,30.1812533 97.8438932,30.6988625 C98.0355982,31.2167286 98.3173137,31.6096316 98.6885952,31.8778309 C99.0599393,32.1462873 99.499144,32.2801287 100.006782,32.2801287 C100.538806,32.2801287 100.984394,32.1462873 101.343481,31.8778309 Z M106.727624,33.4217762 L106.727624,24.1583615 C106.727624,23.9464019 106.81406,23.8402296 106.987572,23.8402296 L108.844103,23.8402296 C109.004846,23.8402296 109.085409,23.9337902 109.085409,24.1209115 L109.085409,25.0940982 C109.085409,25.1688692 109.10405,25.2157141 109.141204,25.2343746 C109.178358,25.2531642 109.22764,25.2315439 109.28969,25.1688692 C109.648587,24.8571722 109.995225,24.5888437 110.329353,24.3642724 C110.663607,24.1397011 111.009864,23.9650623 111.369015,23.8402296 C111.727912,23.7156539 112.117833,23.6531084 112.538651,23.6531084 C113.454468,23.6531084 114.175324,23.9183479 114.701604,24.4484395 C115.2275,24.9789173 115.49064,25.6806878 115.49064,26.5537498 L115.49064,33.3655378 C115.49064,33.6275592 115.360666,33.7585699 115.100719,33.7585699 L113.392675,33.7585699 C113.281342,33.7585699 113.200651,33.7337315 113.151369,33.6836698 C113.101703,33.6339942 113.077061,33.5466102 113.077061,33.4217775 L113.077061,26.9841029 C113.077061,26.497638 112.947088,26.1204357 112.687267,25.8519793 C112.42732,25.5837799 112.037399,25.4496815 111.517631,25.4496815 C111.22053,25.4496815 110.945007,25.4963973 110.691442,25.5899579 C110.437622,25.6835185 110.186995,25.823924 109.939433,26.0110453 C109.691743,26.1981665 109.425794,26.4353508 109.141205,26.7222093 L109.141205,33.3843261 C109.141205,33.6339929 108.99872,33.7585699 108.714131,33.7585699 L107.061754,33.7585699 C106.839088,33.7585699 106.727624,33.6463475 106.727624,33.4217762 L106.727624,33.4217762 Z M120.132028,33.346876 C120.132028,33.4965472 120.101003,33.6027208 120.039208,33.665008 C119.977029,33.7275535 119.865697,33.7585686 119.704953,33.7585686 L118.071217,33.7585686 C117.823527,33.7585686 117.699937,33.6463475 117.699937,33.4217762 L117.755603,20.1911032 C117.755603,19.9790143 117.848423,19.8729712 118.034063,19.8729712 L119.872081,19.8729712 C120.045209,19.8729712 120.132028,19.9729668 120.132028,20.1723136 L120.132028,33.346876 Z M124.940292,22.0063368 C124.940292,22.2934536 124.791677,22.4366898 124.494704,22.4366898 L122.805173,22.4366898 C122.668815,22.4366898 122.575995,22.4056747 122.526713,22.3431292 C122.477047,22.2808407 122.452406,22.1872801 122.452406,22.0624474 L122.452406,20.2284254 C122.452406,19.9916273 122.551355,19.8729712 122.749507,19.8729712 L124.661704,19.8729712 C124.847344,19.8729712 124.940292,19.9790157 124.940292,20.1911032 L124.940292,22.0063355 L124.940292,22.0063368 Z M124.903138,33.3468774 C124.903138,33.4965485 124.86892,33.6027221 124.800997,33.6650093 C124.732819,33.7275548 124.618293,33.7585699 124.45755,33.7585699 L122.842327,33.7585699 C122.705969,33.7585699 122.613149,33.7305147 122.563867,33.6744041 C122.514201,33.6181644 122.489559,33.5339986 122.489559,33.4217775 L122.489559,24.1583629 C122.489559,23.9464032 122.582379,23.8402309 122.768019,23.8402309 L124.64319,23.8402309 C124.816318,23.8402309 124.903138,23.9402265 124.903138,24.1397024 L124.903138,33.3468774 Z M127.242282,33.4217762 L127.242282,24.1583615 C127.242282,23.9464019 127.328718,23.8402296 127.502229,23.8402296 L129.35876,23.8402296 C129.519503,23.8402296 129.600067,23.9337902 129.600067,24.1209115 L129.600067,25.0940982 C129.600067,25.1688692 129.618708,25.2157141 129.655861,25.2343746 C129.693015,25.2531642 129.742297,25.2315439 129.804348,25.1688692 C130.163244,24.8571722 130.509882,24.5888437 130.84401,24.3642724 C131.178265,24.1397011 131.524521,23.9650623 131.883673,23.8402296 C132.242569,23.7156539 132.63249,23.6531084 133.053309,23.6531084 C133.969125,23.6531084 134.689981,23.9183479 135.216261,24.4484395 C135.742157,24.9789173 136.005297,25.6806878 136.005297,26.5537498 L136.005297,33.3655378 C136.005297,33.6275592 135.875323,33.7585699 135.615376,33.7585699 L133.907332,33.7585699 C133.796,33.7585699 133.715308,33.7337315 133.666026,33.6836698 C133.61636,33.6339942 133.591719,33.5466102 133.591719,33.4217775 L133.591719,26.9841029 C133.591719,26.497638 133.461745,26.1204357 133.201924,25.8519793 C132.941977,25.5837799 132.552056,25.4496815 132.032288,25.4496815 C131.735187,25.4496815 131.459664,25.4963973 131.206099,25.5899579 C130.95228,25.6835185 130.701653,25.823924 130.45409,26.0110453 C130.2064,26.1981665 129.940452,26.4353508 129.655862,26.7222093 L129.655862,33.3843261 C129.655862,33.6339929 129.513377,33.7585699 129.228788,33.7585699 L127.576411,33.7585699 C127.353745,33.7585699 127.242282,33.6463475 127.242282,33.4217762 L127.242282,33.4217762 Z M140.590891,30.9420956 C140.825941,31.3477393 141.150875,31.6658726 141.565693,31.8964927 C141.980128,32.127499 142.435036,32.2428091 142.93029,32.2428091 C143.437544,32.2428091 143.898581,32.1368938 144.313399,31.9246771 C144.727962,31.7125883 145.120947,31.3696192 145.492356,30.8953798 C145.541638,30.8330913 145.585176,30.7988594 145.622201,30.7924244 C145.659355,30.7862464 145.72115,30.8082542 145.807969,30.8579298 L146.940452,31.3631829 C147.101068,31.4380831 147.119708,31.5503042 146.996118,31.7001045 C146.624838,32.2492427 146.225597,32.6889919 145.798649,33.0193493 C145.371574,33.3500942 144.90109,33.5872771 144.387578,33.7305133 C143.873939,33.8737495 143.295186,33.9456898 142.651701,33.9456898 C141.710988,33.9456898 140.869478,33.7337302 140.126789,33.309426 C139.384228,32.8855066 138.799346,32.2959584 138.372398,31.5410372 C137.945324,30.7862451 137.731851,29.9161429 137.731851,28.9303446 C137.731851,27.8449367 137.951453,26.9093292 138.390912,26.123265 C138.830117,25.3373287 139.421254,24.7291201 140.163943,24.2987657 C140.906504,23.8682836 141.7235,23.653107 142.614548,23.653107 C143.555134,23.653107 144.375195,23.8588888 145.074601,24.2707105 C145.773625,24.682403 146.321353,25.2718233 146.717658,26.0390992 C147.11358,26.8063751 147.311733,27.7391506 147.311733,28.836784 C147.311733,28.9617458 147.302413,29.0613553 147.2839,29.1362554 C147.265259,29.2111556 147.175376,29.2549115 147.014632,29.2672661 L140.442404,29.2672661 C140.368225,29.2672661 140.315367,29.2923616 140.284597,29.3421663 C140.253573,29.3921002 140.238251,29.4670003 140.238251,29.5666084 C140.238251,30.0784257 140.355713,30.536834 140.590892,30.9420929 L140.590891,30.9420956 Z M144.638335,27.8823895 C144.761797,27.8823895 144.845424,27.8669458 144.888961,27.8356737 C144.932116,27.8046586 144.953948,27.7327183 144.953948,27.6204972 C144.953948,27.2339001 144.867129,26.8532213 144.694001,26.4788497 C144.52049,26.1046072 144.266926,25.7958688 143.932799,25.5525078 C143.598544,25.3092761 143.19011,25.1876602 142.707496,25.1876602 C142.212242,25.1876602 141.779166,25.3092761 141.407886,25.5525078 C141.036478,25.7958688 140.754825,26.1204357 140.563057,26.5256946 C140.371033,26.9312105 140.275277,27.3835712 140.275277,27.8823895 L144.638335,27.8823895 Z M159.518669,23.9618455 C160.007411,24.1677564 160.428358,24.4484382 160.781125,24.8040202 C161.133892,25.1596023 161.427802,25.5496745 161.662981,25.9735939 C161.737288,26.123265 161.706262,26.2169548 161.57016,26.2542757 L160.549011,26.4976367 C160.462319,26.5350867 160.382012,26.4976367 160.307704,26.3852864 C160.060014,26.0236556 159.81577,25.7303608 159.574335,25.5057895 C159.333029,25.2812181 159.076018,25.1097975 158.80394,24.9911415 C158.531481,24.8727424 158.234379,24.813415 157.912764,24.813415 C157.281537,24.813415 156.727424,24.972481 156.251067,25.290613 C155.774454,25.6087449 155.406365,26.0671545 155.146418,26.6659683 C154.88647,27.2649112 154.756623,27.9759474 154.756623,28.7994617 C154.756623,29.6353306 154.889405,30.3526726 155.155737,30.9514878 C155.421685,31.5503029 155.793093,32.0058805 156.269706,32.3175774 C156.745937,32.6296605 157.306176,32.7855097 157.949917,32.7855097 C158.543992,32.7855097 159.057374,32.6357094 159.490833,32.3363671 C159.923909,32.0368956 160.31983,31.6003646 160.678982,31.0263879 C160.716135,30.9640994 160.750098,30.9298674 160.781122,30.9234325 C160.811892,30.9172545 160.858238,30.9266493 160.920416,30.9514878 L161.718644,31.2509592 C161.80508,31.2882802 161.830105,31.3696153 161.792952,31.494191 C161.607312,31.8187579 161.390646,32.1304549 161.14321,32.4299277 C160.895391,32.72927 160.607611,32.9912927 160.279867,33.215864 C159.95174,33.4404353 159.583652,33.6181618 159.175218,33.7491738 C158.766784,33.8801858 158.314813,33.9456898 157.819942,33.9456898 C156.903742,33.9456898 156.096194,33.7305133 155.397042,33.3000312 C154.697635,32.8696781 154.150034,32.270863 153.753985,31.5035871 C153.357808,30.7363112 153.15991,29.8474208 153.15991,28.836784 C153.15991,27.8140508 153.361,26.9157642 153.763304,26.1420547 C154.165355,25.3686021 154.716274,24.7603922 155.415681,24.3174275 C156.114705,23.8747185 156.916253,23.6531071 157.81994,23.6531071 C158.463298,23.6531071 159.029538,23.7560625 159.518664,23.9618442 L159.518669,23.9618455 Z M165.329823,33.3000312 C164.618031,32.8696781 164.067366,32.270863 163.677572,31.5035871 C163.287651,30.7363112 163.092691,29.8538557 163.092691,28.8555736 C163.092691,27.8200996 163.29378,26.9125474 163.696085,26.1326598 C164.098136,25.3531585 164.652248,24.7449498 165.357654,24.3080327 C166.063189,23.8715017 166.880058,23.6531071 167.808388,23.6531071 C168.748846,23.6531071 169.568906,23.8747185 170.268313,24.3174275 C170.967465,24.7603935 171.512257,25.3718202 171.902049,26.1514495 C172.29197,26.9312078 172.486931,27.8262763 172.486931,28.836784 C172.486931,29.8350661 172.288779,30.7175216 171.892856,31.4847975 C171.496551,32.2520734 170.948823,32.854104 170.249799,33.2907642 C169.550392,33.7275522 168.730332,33.9456898 167.789745,33.9456898 C166.861544,33.9456898 166.041484,33.7305133 165.32982,33.3000312 L165.329823,33.3000312 Z M169.479279,32.2895235 C169.936996,31.9713916 170.286954,31.5160709 170.528262,30.9234338 C170.769568,30.3310536 170.890221,29.6228495 170.890221,28.799463 C170.890221,27.9759488 170.766376,27.2681294 170.518941,26.6753644 C170.271251,26.0829843 169.918483,25.6244468 169.460766,25.2998799 C169.002666,24.9756992 168.451746,24.813415 167.808389,24.813415 C167.177162,24.813415 166.626241,24.9756992 166.156012,25.2998799 C165.685528,25.6244468 165.32344,26.0829843 165.069875,26.6753644 C164.816056,27.2681307 164.689402,27.9759488 164.689402,28.799463 C164.689402,29.6104948 164.816056,30.3152239 165.069875,30.914039 C165.323439,31.5128541 165.685526,31.9713916 166.156012,32.2895235 C166.626241,32.6076554 167.183289,32.7667214 167.826902,32.7667214 C168.470387,32.7667214 169.02118,32.6076554 169.479279,32.2895235 L169.479279,32.2895235 Z M174.789051,33.5153368 L174.789051,24.0834614 C174.789051,23.9215634 174.856846,23.8402296 174.993204,23.8402296 L176.107173,23.8402296 C176.230763,23.8402296 176.292813,23.9089518 176.292813,24.0461405 L176.292813,25.1315483 C176.292813,25.1940938 176.308262,25.2315439 176.339287,25.2437694 C176.370057,25.256381 176.416403,25.2375914 176.478453,25.1876588 C176.874503,24.8633489 177.242592,24.5858839 177.583103,24.3548776 C177.923486,24.1241283 178.270125,23.9496187 178.622892,23.8308348 C178.975533,23.7124357 179.356133,23.6531071 179.764695,23.6531071 C180.494743,23.6531071 181.079626,23.8215692 181.519086,24.1583616 C181.95829,24.4952831 182.252455,24.8759605 182.400941,25.2998799 C182.425583,25.3499416 182.462737,25.3686021 182.512402,25.3561196 C182.561685,25.343765 182.611223,25.3124929 182.660889,25.2624298 C183.056811,24.9256374 183.43141,24.6387776 183.784051,24.4015933 C184.136818,24.1647952 184.495714,23.9806338 184.860867,23.8496231 C185.225891,23.7186124 185.612876,23.6531071 186.021311,23.6531071 C186.924615,23.6531071 187.624022,23.9121686 188.119148,24.4297764 C188.614146,24.9475134 188.861837,25.6432351 188.861837,26.5162971 L188.861837,33.4590958 C188.861837,33.6588287 188.769017,33.7585673 188.583377,33.7585673 L187.543714,33.7585673 C187.456895,33.7585673 187.3951,33.736947 187.357946,33.6930619 C187.32092,33.649563 187.30228,33.5901065 187.30228,33.5153355 L187.30228,26.8344291 C187.30228,26.2233884 187.15673,25.7460614 186.866013,25.402834 C186.575039,25.0598636 186.120132,24.8881861 185.501416,24.8881861 C185.142265,24.8881861 184.798818,24.9569082 184.471074,25.0940969 C184.142947,25.2315426 183.845846,25.3998742 183.579898,25.5993501 C183.313567,25.7990829 183.075451,25.9862055 182.865043,26.1607151 C182.765839,26.2482269 182.698044,26.3323927 182.66089,26.4133417 C182.623736,26.4946768 182.605224,26.5976322 182.605224,26.722208 L182.605224,33.4590958 C182.605224,33.6588287 182.512404,33.7585673 182.326635,33.7585673 L181.286973,33.7585673 C181.212794,33.7585673 181.153808,33.736947 181.110653,33.6930619 C181.067116,33.649563 181.045666,33.5901065 181.045666,33.5153355 L181.045666,26.8344291 C181.045666,26.2233884 180.903181,25.7460614 180.618592,25.402834 C180.333748,25.0598636 179.882159,24.8881861 179.263316,24.8881861 C178.743548,24.8881861 178.266936,25.0130201 177.83386,25.2624285 C177.400402,25.5122244 176.905531,25.8926449 176.34861,26.404076 L176.34861,33.4778854 C176.34861,33.6650067 176.255662,33.7585673 176.070022,33.7585673 L175.049001,33.7585673 C174.875489,33.7585673 174.789051,33.6776183 174.789051,33.5153355 L174.789051,33.5153368 Z M150.003319,33.976643 C150.925501,33.976643 151.673078,33.2231015 151.673078,32.293561 C151.673078,31.3640205 150.925501,30.610479 150.003319,30.610479 C149.081137,30.610479 148.33356,31.3640205 148.33356,32.293561 C148.33356,33.2231015 149.081137,33.976643 150.003319,33.976643 Z" id="Combined-Shape" fill="#FFFFFF" fill-rule="nonzero"></path>
    </g>
</svg>